# xmcd CD database file
#
# Track frame offsets:
#	150
#	12613
#	25442
#	36831
#	49762
#	64251
#	75418
#	96550
#
# Disc length: 1470 seconds
#
# Revision: 0
# Processed by: cddbd v1.5.2PL0 Copyright (c) Steve Scherf et al.
# Submitted via: CDex 1.70beta2
#
DISCID=6805bc08
DTITLE=Divers - Jazzmag n°588 - For Dancers only
DYEAR=1900
DGENRE=Jazz
TTITLE0=Jimmy Lunceford - For dancers only
TTITLE1=The Cotton Pickers - I wish I could shimmy like my sister Kate
TTITLE2=James P.Johnson - Charleston
TTITLE3=Duke Ellington - East St.Toodle 00
TTITLE4=Jerry Roll Morton - Black Bottom Stomp
TTITLE5=Bill Robinson - Just a crazy song
TTITLE6=Slim Gaillard and Rex Stewart - Improvisation
TTITLE7=Lionel Hampton - Shufflin' at the Hollywood
EXTD=
EXTT0=
EXTT1=
EXTT2=
EXTT3=
EXTT4=
EXTT5=
EXTT6=
EXTT7=
PLAYORDER=
